<svg xmlns="http://www.w3.org/2000/svg" xmlns:xlink="http://www.w3.org/1999/xlink" width="200" zoomAndPan="magnify" viewBox="0 0 150 149.999998" height="200" preserveAspectRatio="xMidYMid meet" version="1.0"><defs><clipPath id="b679a1fd1b"><path d="M 0 25.6875 L 150 25.6875 L 150 39 L 0 39 Z M 0 25.6875 " clip-rule="nonzero"/></clipPath><clipPath id="526d6e9024"><path d="M 0 111 L 150 111 L 150 124.6875 L 0 124.6875 Z M 0 111 " clip-rule="nonzero"/></clipPath></defs><g clip-path="url(#b679a1fd1b)"><path fill="#64ffda" d="M 149.996094 32.167969 C 149.996094 35.734375 147.117188 38.621094 143.566406 38.621094 L 6.429688 38.621094 C 2.882812 38.621094 0.00390625 35.734375 0.00390625 32.167969 C 0.00390625 28.605469 2.882812 25.71875 6.429688 25.71875 L 143.566406 25.71875 C 147.117188 25.71875 149.996094 28.605469 149.996094 32.167969 Z M 149.996094 32.167969 " fill-opacity="1" fill-rule="evenodd"/></g><path fill="#64ffda" d="M 149.996094 75.1875 C 149.996094 78.75 147.117188 81.640625 143.566406 81.640625 L 6.429688 81.640625 C 2.882812 81.640625 0.00390625 78.75 0.00390625 75.1875 C 0.00390625 71.625 2.882812 68.734375 6.429688 68.734375 L 143.566406 68.734375 C 147.117188 68.734375 149.996094 71.625 149.996094 75.1875 Z M 149.996094 75.1875 " fill-opacity="1" fill-rule="evenodd"/><g clip-path="url(#526d6e9024)"><path fill="#64ffda" d="M 149.996094 118.207031 C 149.996094 121.769531 147.117188 124.660156 143.566406 124.660156 L 6.429688 124.660156 C 2.882812 124.660156 0.00390625 121.769531 0.00390625 118.207031 C 0.00390625 114.644531 2.882812 111.753906 6.429688 111.753906 L 143.566406 111.753906 C 147.117188 111.753906 149.996094 114.644531 149.996094 118.207031 Z M 149.996094 118.207031 " fill-opacity="1" fill-rule="evenodd"/></g></svg>