<svg xmlns="http://www.w3.org/2000/svg" xmlns:xlink="http://www.w3.org/1999/xlink" width="500" zoomAndPan="magnify" viewBox="0 0 375 374.999991" height="500" preserveAspectRatio="xMidYMid meet" version="1.0"><defs><g/><clipPath id="456a67e1ed"><path d="M 50.488281 33.710938 L 324.238281 33.710938 L 324.238281 341.097656 L 50.488281 341.097656 Z M 50.488281 33.710938 " clip-rule="nonzero"/></clipPath></defs><g clip-path="url(#456a67e1ed)"><path fill="#64ffda" d="M 196.214844 52.730469 C 191.441406 49.566406 185.109375 49.566406 180.363281 52.730469 L 75.832031 112.933594 C 69.503906 116.097656 67.921875 120.84375 67.921875 127.203125 L 67.921875 247.605469 C 67.921875 253.960938 69.503906 258.710938 75.832031 261.875 L 180.363281 322.078125 C 185.109375 325.242188 191.441406 325.242188 196.214844 322.078125 L 300.746094 261.875 C 305.492188 258.710938 308.65625 253.960938 308.65625 247.605469 L 308.65625 127.203125 C 308.65625 120.84375 305.492188 116.097656 300.746094 112.933594 Z M 204.125 38.460938 L 308.65625 98.660156 C 319.734375 105.019531 324.507812 114.515625 324.507812 127.203125 L 324.507812 247.605469 C 324.507812 260.292969 319.734375 269.789062 308.65625 276.121094 L 204.125 336.347656 C 194.632812 342.679688 181.945312 342.679688 170.871094 336.347656 L 66.339844 276.121094 C 56.816406 269.789062 50.488281 260.292969 50.488281 247.605469 L 50.488281 127.203125 C 50.488281 114.515625 56.816406 105.019531 66.339844 98.660156 L 170.871094 38.460938 C 181.945312 32.128906 194.632812 32.128906 204.125 38.460938 " fill-opacity="1" fill-rule="nonzero"/></g><g fill="#64ffda" fill-opacity="1"><g transform="translate(128.132809, 274.170839)"><g><path d="M 56.894531 -73.09375 C 83.761719 -69.339844 95.023438 -60.253906 95.023438 -42.078125 L 95.023438 -40.300781 C 95.023438 -21.53125 80.996094 -10.667969 60.054688 -10.667969 L 58.671875 -10.667969 C 37.929688 -10.667969 23.3125 -23.113281 23.3125 -50.175781 L 9.085938 -50.175781 L 9.085938 -48.203125 C 9.085938 -16.398438 26.667969 2.171875 59.265625 2.171875 C 90.082031 2.171875 109.640625 -14.027344 109.640625 -41.289062 L 109.640625 -43.261719 C 109.640625 -66.96875 95.8125 -80.601562 62.226562 -85.144531 C 33.980469 -89.09375 25.484375 -98.773438 25.484375 -115.171875 L 25.484375 -116.753906 C 25.484375 -133.347656 39.707031 -143.421875 58.476562 -143.421875 L 59.859375 -143.421875 C 83.367188 -143.421875 93.640625 -131.171875 93.640625 -101.9375 L 107.863281 -101.9375 L 107.863281 -106.675781 C 107.863281 -138.484375 93.640625 -156.261719 59.265625 -156.261719 C 30.027344 -156.261719 10.867188 -140.65625 10.867188 -114.972656 L 10.867188 -113 C 10.867188 -92.652344 23.3125 -77.636719 56.894531 -73.09375 Z M 56.894531 -73.09375 "/></g></g></g></svg>